<?xml version="1.0" encoding="utf-8"?>
<!-- Generator: Adobe Illustrator 16.0.0, SVG Export Plug-In . SVG Version: 6.00 Build 0)  -->
<!DOCTYPE svg PUBLIC "-//W3C//DTD SVG 1.1//EN" "http://www.w3.org/Graphics/SVG/1.1/DTD/svg11.dtd">
<svg version="1.1" id="Calque_1" xmlns="http://www.w3.org/2000/svg" xmlns:xlink="http://www.w3.org/1999/xlink" x="0px" y="0px"
	 width="150.632px" height="203.991px" viewBox="0 0 150.632 203.991" enable-background="new 0 0 150.632 203.991"
	 xml:space="preserve">
<path fill="#F59885" d="M127.045,8.25c-1.644-0.652-3.313-0.023-4.063,1.529c-1.087,2.248-2.207,4.452-3.335,6.551
	c-0.282,0.526-0.58,1.186-0.893,1.884c-0.16,0.354-0.325,0.723-0.495,1.089C110.584,9.002,98.677,2.934,85.887,2.937
	c-12.911,0.004-24.394,6.33-31.507,17.36c-8.834,13.697-9.833,29.271-2.973,46.29c4.964,12.313,14.1,25.448,27.156,39.042
	c13.328,13.875,31.575,32.881,25.142,55.401c-5.47,19.144-25.867,33.444-46.435,32.559c-10.722-0.461-21.304-5.596-28.305-13.732
	c-6.23-7.242-9.125-16.229-8.152-25.305c1.239-11.558,8.613-21.319,19.243-25.478c10.04-3.928,20.559-2.024,28.853,5.226
	c1.446,1.263,3.366,0.838,4.387-0.307c1.079-1.207,0.991-2.879-0.208-3.974c-8.279-7.555-19.365-10.728-30.421-8.705
	c-10.99,2.009-20.168,8.858-25.201,18.792c-5.229,10.32-5.751,21.997-1.47,32.874C20.72,184.976,30.53,194.46,42.91,199
	c8.749,3.211,18.207,3.599,27.284,1.653c16.575-3.553,31.869-14.893,39.165-31.052c12.987-28.756-7.675-51.067-25.902-70.751
	c-2.417-2.607-4.696-5.071-6.889-7.539C53.145,64.988,53.521,44.606,57.959,32.145c4.037-11.327,13.396-18.935,25.042-20.35
	c10.547-1.282,20.818,2.916,27.553,11.071c-1.967-0.221-4.053-0.641-5.86-1.005c-1.152-0.231-2.146-0.433-2.987-0.559
	c-1.574-0.234-3,0.329-3.911,1.543c-1.031,1.37-1.232,3.371-0.494,4.979c0.681,1.49,2.033,2.41,3.707,2.523
	c2.708,0.182,5.463,0.478,8.13,0.762c1.342,0.145,2.686,0.288,4.028,0.418l0.622,0.063c2.031,0.213,4.333,0.455,6.578-0.947
	c4.382-2.737,6.522-10.172,8.083-15.601c0.272-0.941,0.521-1.805,0.755-2.544C129.745,10.782,128.816,8.955,127.045,8.25z"/>
</svg>
