<?xml version="1.0" encoding="utf-8"?>
<!-- Generator: Adobe Illustrator 16.0.0, SVG Export Plug-In . SVG Version: 6.00 Build 0)  -->
<!DOCTYPE svg PUBLIC "-//W3C//DTD SVG 1.1//EN" "http://www.w3.org/Graphics/SVG/1.1/DTD/svg11.dtd">
<svg version="1.1" id="Calque_1" xmlns="http://www.w3.org/2000/svg" xmlns:xlink="http://www.w3.org/1999/xlink" x="0px" y="0px"
	 width="400px" height="200px" viewBox="0 0 400 200" enable-background="new 0 0 400 200" xml:space="preserve">
<path fill="#EFAE4F" d="M358.703,111.922c-0.014-2.366-3.637-3.504-4.968-1.536c-0.433,0.64-0.893,1.248-1.35,1.86
	c-0.718,0.027-1.443,0.309-2.062,0.962c-0.981,1.038-1.995,2.028-3.027,2.992c-12.676-16.95-30.566-29.602-51.38-35.219
	c-19.009-5.13-43.729-4.788-62.948,4.27c-11.464-11.896-27.226-19.763-42.953-24.108c-24.029-6.637-53.655-6.887-72.193,12.282
	c-0.126,0.13-0.244,0.269-0.368,0.4c-4.801-0.916-9.4-1.555-13.401-2.036c-23.666-2.847-52.305,2.492-61.825,27.429
	c-0.931,2.439,2.694,4.17,3.703,1.726c10.453-25.315,40.525-27.041,63.822-23.18c1.322,0.219,2.664,0.44,4.014,0.67
	c-10.176,14.956-9.96,37.051,6.22,48.162c14.653,10.063,39.06,1.235,39.89-17.788c0.874-20.049-17.594-29.1-35.717-33.533
	c7.104-6.163,16.449-10.224,25.444-11.651c25.377-4.031,58.619,4.744,78.096,24.419c-4.924,2.922-9.37,6.501-13.094,10.829
	c-13.173,15.307-10.928,45.417,13.649,46.668c24.934,1.271,23.248-30.338,15.385-45.564c-1.749-3.387-3.826-6.535-6.133-9.491
	c4.964-2.121,10.055-3.663,14.666-4.646c34.622-7.376,69.769,6.979,90.192,34.557c-2.696,2.076-5.544,3.958-8.56,5.666
	c-0.325,0.184-0.569,0.414-0.76,0.669c-2.049-0.154-3.098,2.856-1.007,4.046c5.26,2.993,10.595,5.851,15.965,8.642
	c0.081,0.088,0.16,0.177,0.242,0.265c0.599,0.644,1.398,0.953,2.2,1.001c1.552,0.8,3.105,1.599,4.663,2.39
	c1.969,1,3.865-0.763,3.847-2.71C358.867,130.882,358.757,121.402,358.703,111.922z M143.089,88.308
	c9.691,6.806,16.282,21.047,6.737,30.812c-14.874,15.217-36.069,1.275-37.529-17.133c-0.695-8.748,2.407-16.332,7.604-22.428
	C128.121,81.203,136.351,83.576,143.089,88.308z M241.823,111.391c2.759,9.418,2.807,25.664-9.765,27.906
	c-9.386,1.674-17.969-5.472-19.557-14.523c-2.59-14.768,7.377-25.193,19.648-31.73C236.489,98.479,239.836,104.603,241.823,111.391z
	"/>
</svg>
